<svg xmlns="http://www.w3.org/2000/svg" viewBox="0 0 120 120">
  <defs>
    <linearGradient id="g" x1="0%" y1="0%" x2="100%" y2="100%">
      <stop offset="0%" stop-color="#2563eb" />
      <stop offset="100%" stop-color="#7c3aed" />
    </linearGradient>
  </defs>
  <rect width="120" height="120" rx="24" fill="url(#g)" />
  <path
    d="M36 38h48a4 4 0 0 1 4 4v36a4 4 0 0 1-4 4H36a4 4 0 0 1-4-4V42a4 4 0 0 1 4-4z"
    fill="#f8fafc"
  />
  <path
    d="M44 50h28a2 2 0 1 1 0 4H44a2 2 0 0 1 0-4zm0 14h36a2 2 0 1 1 0 4H44a2 2 0 0 1 0-4z"
    fill="#1e293b"
  />
  <circle cx="76" cy="48" r="6" fill="#2563eb" />
</svg>
